<svg width="13" height="13" viewBox="0 0 13 13" fill="none" xmlns="http://www.w3.org/2000/svg">
<path fill-rule="evenodd" clip-rule="evenodd" d="M7.69951 5.30049C7.93382 5.53481 7.93382 5.91471 7.69951 6.14902L5.93491 7.91362C5.70059 8.14793 5.3207 8.14793 5.08638 7.91362C4.85207 7.67931 4.85207 7.29941 5.08638 7.06509L6.85098 5.30049C7.0853 5.06618 7.46519 5.06618 7.69951 5.30049Z" fill="white"/>
<path fill-rule="evenodd" clip-rule="evenodd" d="M10.0245 2.90401C10.0245 2.90401 10.0245 2.90401 10.0245 2.90401L2.93848 5.26621C2.91959 5.2725 2.91391 5.27944 2.91128 5.28292C2.90682 5.28883 2.90167 5.29954 2.90029 5.31437C2.89892 5.3292 2.90201 5.34071 2.90533 5.34737C2.9073 5.35133 2.91162 5.35919 2.92901 5.36885L5.80192 6.96491C5.89986 7.01932 5.98061 7.10007 6.03502 7.19802L7.63102 10.0708C7.64068 10.0882 7.64861 10.0926 7.65256 10.0946C7.65923 10.0979 7.67074 10.101 7.68556 10.0996C7.70039 10.0983 7.71111 10.0931 7.71701 10.0887C7.72049 10.086 7.72742 10.0804 7.73372 10.0615L10.0959 2.97547C10.1015 2.95871 10.1 2.95002 10.0987 2.94497C10.0968 2.93756 10.0918 2.92743 10.0822 2.91777C10.0725 2.90811 10.0624 2.90314 10.055 2.90122C10.0499 2.89992 10.0412 2.89843 10.0245 2.90401ZM9.64499 1.76559C10.627 1.43824 11.5617 2.37288 11.2343 3.35494L8.87214 10.4409C8.52637 11.4783 7.11263 11.6089 6.58204 10.6536C6.58202 10.6536 6.58206 10.6536 6.58204 10.6536L5.06929 7.93064L2.34645 6.41796C2.34642 6.41794 2.34649 6.41798 2.34645 6.41796C1.39112 5.88736 1.52167 4.47358 2.55898 4.1278C2.55897 4.1278 2.55898 4.1278 2.55898 4.1278L9.64499 1.76559Z" fill="white"/>
</svg>
